<svg xmlns="http://www.w3.org/2000/svg" viewBox="0 0 93.86 205.4"><defs><style>.cls-1{fill:#83f496;}</style></defs><g id="Layer_2" data-name="Layer 2"><g id="Layer_1-2" data-name="Layer 1"><path class="cls-1" d="M93.86,20.54c-2.86,2.08-4.42,4.68-4.42,11.7V129A236.76,236.76,0,0,0,62.66,153.4c-5.72-3.9-14.3-8.84-22.36-10.14v44.2c0,10.14,1.56,14,6.24,16.9l-.52,1c-12-1.56-18.72-10.14-22.62-19.76h-.52c-2.08,5.46-8.32,9.62-12.22,10.66l-.78-.52c2.08-2.86,3.64-5.46,3.64-14.56V26C6,21.06,3.38,20,.78,20.28L0,19.5,19.76,0c6,4.94,17.16,13.78,22.88,18.2C51.48,11.18,58,5.46,64.22,0,71,5.2,86.32,15.08,93.86,19.5ZM62.66,128.7V28.6c-4.42-3.38-9.36-6.76-13-9.1L40.3,27.3v94.9A43,43,0,0,1,62.66,129Z"/></g></g></svg>