<svg xmlns="http://www.w3.org/2000/svg" viewBox="0 0 84.76 153.66"><defs><style>.cls-1{fill:#83f496;}</style></defs><g id="Layer_2" data-name="Layer 2"><g id="Layer_1-2" data-name="Layer 1"><path class="cls-1" d="M84.76,22.62c-2.34,1.82-4.42,4.16-4.42,11.7V124.8a488.13,488.13,0,0,0-44.72,28.86C24.18,145.86,10.92,137.54,0,131.3v-1c3.12-1.3,4.42-4.68,4.42-10.14V28.86A517.48,517.48,0,0,0,49.14,0C60.06,7,73.58,15.6,84.76,21.58ZM53.56,134.94V32c-6-4.16-14.82-9.62-21.58-13.52l-.78.26v103c5.72,4.16,15.86,10.4,21.84,13.78Z"/></g></g></svg>