<svg xmlns="http://www.w3.org/2000/svg" viewBox="0 0 54.34 208"><defs><style>.cls-1{fill:#83f496;}</style></defs><g id="Layer_2" data-name="Layer 2"><g id="Layer_1-2" data-name="Layer 1"><path class="cls-1" d="M54.34,188.76,34.06,208c-5.72-4.42-17.42-12.74-24.7-17.42v-1c3.38-2.08,4.42-4.94,4.42-12.22V80.6L10.4,78.52C4.94,75.14,3.12,75.14.26,75.14L0,74.1,20.28,54.6C26,59,37.18,67.08,45,72.28v1c-3.12,1.82-4.42,4.42-4.42,11.44v97.5c8.06,5.2,10.92,5.72,13.26,5.72ZM21.58,41.6l-8.32-9.1C20.54,25.22,38,6.5,42.38,0,44.46,2.6,49.66,13.78,52,19.76,45.76,25,29.9,36.4,21.58,41.6Z"/></g></g></svg>