<svg xmlns="http://www.w3.org/2000/svg" viewBox="0 0 81.12 153.4"><defs><style>.cls-1{fill:#83f496;}</style></defs><g id="Layer_2" data-name="Layer 2"><g id="Layer_1-2" data-name="Layer 1"><path class="cls-1" d="M81.12,75.66c-2.86,2.08-4.42,4.68-4.42,9.88v45c-13.78,5.2-28.6,13.26-42.64,22.88-7.28-5.2-17.16-10.66-26.26-12.74a27.36,27.36,0,0,0-1,8.06v3.9C4.42,151.84,0,150.54,0,150.54.78,119.6,20,95.42,29.9,83.46,22.36,79.3,7.28,69.94,2.34,67.86v-1c2.86-1.56,4.42-4.16,4.42-9.36V19.76C20,15.86,34.84,8.06,45.76,0c8.32,6.5,16.9,13.52,26.52,19.24,1.56-3.64,1.3-7.28,2.34-11.7,1.56,1.3,4.68,2.6,5.72,3.9C78.78,22.36,72.54,38,55.12,60.32l26,14.3ZM50.18,134.94V83.46L42.12,79.3c-7.8,8.58-23.66,29.9-28.6,41.34,13.78.78,27.82,8.06,36.14,14.56ZM34.58,17.16l-1,.52V59c2.34,1.3,7,3.9,9.62,4.94C49.4,57.72,58,45.5,61.88,37.7,51.22,32.5,39.78,22.36,34.58,17.16Z"/></g></g></svg>