<svg xmlns="http://www.w3.org/2000/svg" viewBox="0 0 103.22 153.66"><defs><style>.cls-1{fill:#83f496;}</style></defs><g id="Layer_2" data-name="Layer 2"><g id="Layer_1-2" data-name="Layer 1"><path class="cls-1" d="M103.22,134.16c-5.2,4.94-13.78,13.52-20,19.5-6.5-4.94-19.5-14-25-17.68v-1c2.6-1.56,4.42-4.68,4.42-12.48V28.86c-4.68-3.64-9.1-6.24-13.26-9.1,0,0-7.54,6-9.1,7.28V129c3.12,2.6,5.46,3.9,8.84,6.5v.26c-6.24,5.46-13.52,12.22-19,17.68-7.8-6-16.12-12.48-21.06-16.12v-1c2.34-1.82,4.42-4.68,4.42-13.26V26c-4.94-3.9-9.62-5.72-13-6L0,19.5C7.54,12.48,13.26,7,19.76,0c8.32,6.5,17.68,13.26,23.66,17.42h.26L64.22,0C72.8,6,84.5,14,93.86,19.76v1c-2.86,2.08-4.42,4.94-4.42,10.4v96.46c4.16,3.12,10.14,6.24,13.26,6Z"/></g></g></svg>