<?xml version="1.0" encoding="utf-8"?>
<!-- Generator: Adobe Illustrator 26.1.0, SVG Export Plug-In . SVG Version: 6.00 Build 0)  -->
<svg version="1.1" id="Layer_1" xmlns="http://www.w3.org/2000/svg" xmlns:xlink="http://www.w3.org/1999/xlink" x="0px" y="0px"
	 viewBox="0 0 70 1170" style="enable-background:new 0 0 70 1170;" xml:space="preserve">
<style type="text/css">
	.st0{fill:#83F496;}
</style>
<g id="Layer_2_00000135660851845137036010000010423054338267107205_">
	<g id="Layer_1-2">
		<path class="st0" d="M52.1,0c-3.3,4.7-9.8,7.9-17.2,7.9S21.2,4.8,17.9,0.2"/>
		<path class="st0" d="M58.8,90c-2.7,6.5-12.3,11.3-23.8,11.3S13.9,96.5,11.2,90"/>
		<path class="st0" d="M63.9,180c-3.5,7.8-15.1,13.6-28.9,13.6s-25.3-5.7-28.9-13.4"/>
		<path class="st0" d="M69.1,270c-10.5,4-15.9,15-34.3,15h0.4c-18.4,0-23.8-11-34.3-15"/>
		<path class="st0" d="M69.1,360c-15.2,5.5-15.9,22-34.3,22h0.4c-18.4,0-19.4-17.5-34.3-22"/>
		<path class="st0" d="M69.1,450c-15.2,7.5-12.1,30-33.9,30s-19.4-23.9-34.3-30"/>
		<path class="st0" d="M70,540c-29.5,16.3-13.7,40.3-35.4,40.3S28.7,556.3,0,540"/>
		<path class="st0" d="M35.3,673.9c-7.5,0-15.3-2-17-13c-2-13,22-20-16.7-30.9h34.1"/>
		<path class="st0" d="M34.7,673.9c7.5,0,15.3-2,17-13c2-13-22-20,16.7-30.9H34.3"/>
		<path class="st0" d="M35.1,768.3c-7.5,0-13.6-4.3-14.6-13.3c-1.6-14.4,26-28-19.1-35h34.1"/>
		<path class="st0" d="M34.9,768.3c7.5,0,13.6-4.3,14.6-13.3c1.6-14.4-26-28,19.1-35H34.5"/>
		<path class="st0" d="M35,869c-7.5,0-15-5-16-14c-1.6-14.4,26-31-7-45h24"/>
		<path class="st0" d="M35,869c7.5,0,15-5,16-14c1.6-14.4-26-31,7-45H34"/>
		<path class="st0" d="M35,973c-7.5,0-15-6-16-15c-1.6-14.4,31-40-7-58h24"/>
		<path class="st0" d="M35,973c7.5,0,15-6,16-15c1.6-14.4-31-40,7-58H34"/>
		<path class="st0" d="M35,1077c-7.5,0-16-5-16-20c0-18,29-40,5-67h12"/>
		<path class="st0" d="M35,1077c7.5,0,16-5,16-20c0-18-29-40-5-67H34"/>
		<path class="st0" d="M17.3,1150.4c0.1-9.4,13.3-28,17.6-38.6c0.2-0.4,0.7-0.5,1-0.3c0.1,0.1,0.2,0.2,0.3,0.3
			c3.1,5.5,16.5,29.7,16.4,39.2c-0.2,10.7-8.2,19.2-18,19S17.2,1161.1,17.3,1150.4z"/>
	</g>
</g>
</svg>
